<svg width="20" height="20" viewBox="0 0 20 20" fill="none" xmlns="http://www.w3.org/2000/svg">
<path d="M16.8173 6.22053C16.0542 6.22053 15.4356 5.60189 15.4356 4.83876C15.4356 4.07564 16.0542 3.457 16.8173 3.457C17.5805 3.457 18.1991 4.07564 18.1991 4.83876C18.1991 5.60189 17.5805 6.22053 16.8173 6.22053Z" stroke="#727191" stroke-width="1.5"/>
<path fill-rule="evenodd" clip-rule="evenodd" d="M3.39496 11.2341C3.39496 12.9553 3.48915 14.2362 3.70411 15.2034C3.91529 16.1537 4.22258 16.7069 4.58589 17.0702C4.9492 17.4335 5.50244 17.7408 6.45267 17.952C7.41994 18.1669 8.70075 18.2611 10.422 18.2611C12.1433 18.2611 13.4241 18.1669 14.3914 17.952C15.3416 17.7408 15.8949 17.4335 16.2582 17.0702C16.6215 16.7069 16.9288 16.1537 17.1399 15.2034C17.3549 14.2362 17.4491 12.9553 17.4491 11.2341C17.4491 9.51279 17.3549 8.23198 17.1399 7.26471C17.116 7.15692 17.0908 7.05424 17.0644 6.95636C17.6023 6.89427 18.0793 6.63195 18.4188 6.24583C18.8099 7.47364 18.9491 9.09879 18.9491 11.2341C18.9491 18.2561 17.4441 19.7611 10.422 19.7611C3.39999 19.7611 1.89496 18.2561 1.89496 11.2341C1.89496 4.21202 3.39999 2.707 10.422 2.707C12.5573 2.707 14.1825 2.84616 15.4103 3.2373C15.0241 3.57681 14.7618 4.05375 14.6997 4.59167C14.6019 4.5653 14.4992 4.54011 14.3914 4.51615C13.4241 4.30118 12.1433 4.207 10.422 4.207C8.70075 4.207 7.41994 4.30118 6.45267 4.51615C5.50244 4.72733 4.9492 5.03461 4.58589 5.39793C4.22258 5.76124 3.91529 6.31448 3.70411 7.26471C3.48915 8.23198 3.39496 9.51279 3.39496 11.2341Z" fill="#727191"/>
<path d="M6.15849 12.6552C6.15849 12.6552 8.12632 7.68112 10.422 11.2341C12.7178 14.787 14.6856 9.81289 14.6856 9.81289" stroke="#727191" stroke-width="1.5" stroke-linecap="round" stroke-linejoin="round"/>
</svg>
